<svg xmlns="http://www.w3.org/2000/svg" viewBox="0 0 64 64" role="img" aria-label="WhatsApp">
  <path fill="#25D366" d="M32 5.8C17.5 5.8 5.8 17.2 5.8 31.3c0 4.7 1.3 9.2 3.8 13.2L6.9 58.2l14-3.4A26.9 26.9 0 0 0 32 57.3c14.5 0 26.2-11.4 26.2-25.7S46.5 5.8 32 5.8Z"/>
  <path fill="none" stroke="#fff" stroke-linecap="round" stroke-linejoin="round" stroke-width="4.4" d="M32 14.4c9.9 0 18 7.7 18 17.2s-8.1 17.2-18 17.2c-3.2 0-6.2-.8-8.8-2.3l-7 1.7 1.7-6.7a16.3 16.3 0 0 1-3.8-10c0-9.4 8-17.1 17.9-17.1Z"/>
  <path fill="#fff" d="M24.8 22.1c-.5-1-1-1-1.4-1h-1.2c-.4 0-1.1.2-1.6.7-.6.6-2.1 2.1-2.1 5 0 3 2.2 5.9 2.5 6.3.3.4 4.4 7 10.9 9.5 5.4 2.1 6.4 1.7 7.6 1.6 1.2-.1 3.8-1.5 4.3-3 .5-1.5.5-2.8.4-3.1-.2-.3-.6-.4-1.2-.7l-4.4-2.1c-.6-.3-1.1-.4-1.5.3-.5.7-1.7 2.1-2.1 2.5-.4.5-.8.5-1.5.2a18 18 0 0 1-5.2-3.2 19.4 19.4 0 0 1-3.5-4.3c-.4-.7 0-1 .3-1.3.3-.3.6-.7.9-1.1.3-.4.4-.7.6-1.1.2-.4.1-.8 0-1.1l-1.8-4.1Z"/>
</svg>
