<svg xmlns="http://www.w3.org/2000/svg" viewBox="0 0 64 64" role="img" aria-label="WhatsApp">
  <path fill="#25D366" d="M32.1 5.5c-14.4 0-26 11.5-26 25.7 0 4.9 1.4 9.6 3.9 13.6L6.8 58.5l14.1-3.3a26.4 26.4 0 0 0 11.2 2.5c14.4 0 26-11.5 26-25.7S46.5 5.5 32.1 5.5Z"/>
  <path fill="#fff" d="M32.1 10.2c11.7 0 21.2 9.4 21.2 21s-9.5 21-21.2 21c-3.6 0-7.1-.9-10.2-2.6l-.8-.5-8.1 1.9 1.9-7.8-.5-.8a20.6 20.6 0 0 1-3.4-11.2c0-11.6 9.5-21 21.1-21Zm0 4.2c-9.3 0-16.9 7.5-16.9 16.8 0 3.5 1.1 6.7 2.9 9.3l-1.1 4.7 4.9-1.1a17 17 0 0 0 10.2 3.8c9.3 0 16.9-7.5 16.9-16.8S41.4 14.4 32.1 14.4Z"/>
  <path fill="#fff" d="M24.9 21.8c-.5-1.1-1-1.1-1.5-1.1h-1.3c-.5 0-1.2.2-1.8.8-.6.7-2.4 2.3-2.4 5.6 0 3.3 2.5 6.5 2.8 7 .4.4 4.8 7.6 11.9 10.3 5.9 2.4 7.1 1.9 8.4 1.8 1.3-.1 4.2-1.7 4.8-3.4.6-1.7.6-3.1.4-3.4-.2-.3-.6-.5-1.3-.8l-4.9-2.4c-.7-.3-1.2-.5-1.7.3-.5.7-1.9 2.4-2.3 2.9-.4.5-.9.5-1.6.2-.7-.4-3-1.1-5.7-3.5a21.4 21.4 0 0 1-3.9-4.8c-.4-.7 0-1.1.3-1.4.3-.3.7-.9 1-1.3.3-.4.4-.7.7-1.2.2-.5.1-.9 0-1.3l-2.1-5Z"/>
</svg>
